<svg xmlns="http://www.w3.org/2000/svg" version="1.1">
    <svg id="circle">
        <circle cx="100" cy="50" r="40" stroke="black" stroke-width="2" fill="red" />
    </svg>

    <svg id='main-logo' width="103" height="40" viewBox="0 0 103 40" fill="none">
        <circle cx="20" cy="20" r="20" fill="#F44336" />
        <path
            d="M25.4639 23.0205H20.5068L19.4697 26H17.1582L21.9922 13.2031H23.9873L28.8301 26H26.5098L25.4639 23.0205ZM21.1309 21.2275H24.8398L22.9854 15.9189L21.1309 21.2275ZM29.709 21.1748C29.709 19.6982 30.0547 18.5205 30.7461 17.6416C31.4434 16.7568 32.3662 16.3145 33.5146 16.3145C34.5986 16.3145 35.4512 16.6924 36.0723 17.4482L36.1689 16.4902H38.0938V25.71C38.0938 26.958 37.7041 27.9424 36.9248 28.6631C36.1514 29.3838 35.1055 29.7441 33.7871 29.7441C33.0898 29.7441 32.4072 29.5977 31.7393 29.3047C31.0771 29.0176 30.5732 28.6396 30.2275 28.1709L31.2383 26.8877C31.8945 27.667 32.7031 28.0566 33.6641 28.0566C34.373 28.0566 34.9326 27.8633 35.3428 27.4766C35.7529 27.0957 35.958 26.5332 35.958 25.7891V25.1475C35.3428 25.833 34.5225 26.1758 33.4971 26.1758C32.3838 26.1758 31.4727 25.7334 30.7637 24.8486C30.0605 23.9639 29.709 22.7393 29.709 21.1748ZM31.8359 21.3594C31.8359 22.3145 32.0293 23.0674 32.416 23.6182C32.8086 24.1631 33.3506 24.4355 34.042 24.4355C34.9033 24.4355 35.542 24.0664 35.958 23.3281V19.1445C35.5537 18.4238 34.9209 18.0635 34.0596 18.0635C33.3564 18.0635 32.8086 18.3418 32.416 18.8984C32.0293 19.4551 31.8359 20.2754 31.8359 21.3594Z"
            fill="white" />
        <path
            d="M46.0732 18.4414C45.792 18.3945 45.502 18.3711 45.2031 18.3711C44.2246 18.3711 43.5654 18.7461 43.2256 19.4961V26H41.0898V16.4902H43.1289L43.1816 17.5537C43.6973 16.7275 44.4121 16.3145 45.3262 16.3145C45.6309 16.3145 45.8828 16.3555 46.082 16.4375L46.0732 18.4414ZM51.4346 26.1758C50.0811 26.1758 48.9824 25.751 48.1387 24.9014C47.3008 24.0459 46.8818 22.9092 46.8818 21.4912V21.2275C46.8818 20.2783 47.0635 19.4316 47.4268 18.6875C47.7959 17.9375 48.3115 17.3545 48.9736 16.9385C49.6357 16.5225 50.374 16.3145 51.1885 16.3145C52.4834 16.3145 53.4824 16.7275 54.1855 17.5537C54.8945 18.3799 55.249 19.5488 55.249 21.0605V21.9219H49.0352C49.0996 22.707 49.3604 23.3281 49.8174 23.7852C50.2803 24.2422 50.8604 24.4707 51.5576 24.4707C52.5361 24.4707 53.333 24.0752 53.9482 23.2842L55.0996 24.3828C54.7188 24.9512 54.209 25.3936 53.5703 25.71C52.9375 26.0205 52.2256 26.1758 51.4346 26.1758ZM51.1797 18.0283C50.5938 18.0283 50.1191 18.2334 49.7559 18.6436C49.3984 19.0537 49.1699 19.625 49.0703 20.3574H53.1396V20.1992C53.0928 19.4844 52.9023 18.9453 52.5684 18.582C52.2344 18.2129 51.7715 18.0283 51.1797 18.0283ZM56.541 21.1748C56.541 19.6982 56.8867 18.5205 57.5781 17.6416C58.2754 16.7568 59.1982 16.3145 60.3467 16.3145C61.4307 16.3145 62.2832 16.6924 62.9043 17.4482L63.001 16.4902H64.9258V25.71C64.9258 26.958 64.5361 27.9424 63.7568 28.6631C62.9834 29.3838 61.9375 29.7441 60.6191 29.7441C59.9219 29.7441 59.2393 29.5977 58.5713 29.3047C57.9092 29.0176 57.4053 28.6396 57.0596 28.1709L58.0703 26.8877C58.7266 27.667 59.5352 28.0566 60.4961 28.0566C61.2051 28.0566 61.7646 27.8633 62.1748 27.4766C62.585 27.0957 62.79 26.5332 62.79 25.7891V25.1475C62.1748 25.833 61.3545 26.1758 60.3291 26.1758C59.2158 26.1758 58.3047 25.7334 57.5957 24.8486C56.8926 23.9639 56.541 22.7393 56.541 21.1748ZM58.668 21.3594C58.668 22.3145 58.8613 23.0674 59.248 23.6182C59.6406 24.1631 60.1826 24.4355 60.874 24.4355C61.7354 24.4355 62.374 24.0664 62.79 23.3281V19.1445C62.3857 18.4238 61.7529 18.0635 60.8916 18.0635C60.1885 18.0635 59.6406 18.3418 59.248 18.8984C58.8613 19.4551 58.668 20.2754 58.668 21.3594ZM72.8096 26C72.7158 25.8184 72.6338 25.5225 72.5635 25.1123C71.8838 25.8213 71.0518 26.1758 70.0674 26.1758C69.1123 26.1758 68.333 25.9033 67.7295 25.3584C67.126 24.8135 66.8242 24.1396 66.8242 23.3369C66.8242 22.3232 67.1992 21.5469 67.9492 21.0078C68.7051 20.4629 69.7832 20.1904 71.1836 20.1904H72.4932V19.5664C72.4932 19.0742 72.3555 18.6816 72.0801 18.3887C71.8047 18.0898 71.3857 17.9404 70.8232 17.9404C70.3369 17.9404 69.9385 18.0635 69.6279 18.3096C69.3174 18.5498 69.1621 18.8574 69.1621 19.2324H67.0264C67.0264 18.7109 67.1992 18.2246 67.5449 17.7734C67.8906 17.3164 68.3594 16.959 68.9512 16.7012C69.5488 16.4434 70.2139 16.3145 70.9463 16.3145C72.0596 16.3145 72.9473 16.5957 73.6094 17.1582C74.2715 17.7148 74.6113 18.5 74.6289 19.5137V23.8027C74.6289 24.6582 74.749 25.3408 74.9893 25.8506V26H72.8096ZM70.4629 24.4619C70.8848 24.4619 71.2803 24.3594 71.6494 24.1543C72.0244 23.9492 72.3057 23.6738 72.4932 23.3281V21.5352H71.3418C70.5508 21.5352 69.9561 21.6729 69.5576 21.9482C69.1592 22.2236 68.96 22.6133 68.96 23.1172C68.96 23.5273 69.0947 23.8555 69.3643 24.1016C69.6396 24.3418 70.0059 24.4619 70.4629 24.4619ZM79.542 14.1787V16.4902H81.2207V18.0723H79.542V23.3809C79.542 23.7441 79.6123 24.0078 79.7529 24.1719C79.8994 24.3301 80.1572 24.4092 80.5264 24.4092C80.7725 24.4092 81.0215 24.3799 81.2734 24.3213V25.9736C80.7871 26.1084 80.3184 26.1758 79.8672 26.1758C78.2266 26.1758 77.4062 25.2705 77.4062 23.46V18.0723H75.8418V16.4902H77.4062V14.1787H79.542ZM87.0479 26.1758C85.6943 26.1758 84.5957 25.751 83.752 24.9014C82.9141 24.0459 82.4951 22.9092 82.4951 21.4912V21.2275C82.4951 20.2783 82.6768 19.4316 83.04 18.6875C83.4092 17.9375 83.9248 17.3545 84.5869 16.9385C85.249 16.5225 85.9873 16.3145 86.8018 16.3145C88.0967 16.3145 89.0957 16.7275 89.7988 17.5537C90.5078 18.3799 90.8623 19.5488 90.8623 21.0605V21.9219H84.6484C84.7129 22.707 84.9736 23.3281 85.4307 23.7852C85.8936 24.2422 86.4736 24.4707 87.1709 24.4707C88.1494 24.4707 88.9463 24.0752 89.5615 23.2842L90.7129 24.3828C90.332 24.9512 89.8223 25.3936 89.1836 25.71C88.5508 26.0205 87.8389 26.1758 87.0479 26.1758ZM86.793 18.0283C86.207 18.0283 85.7324 18.2334 85.3691 18.6436C85.0117 19.0537 84.7832 19.625 84.6836 20.3574H88.7529V20.1992C88.7061 19.4844 88.5156 18.9453 88.1816 18.582C87.8477 18.2129 87.3848 18.0283 86.793 18.0283ZM95.0811 26H92.8662V13.2031H95.0811V26ZM100.284 14.1787V16.4902H101.963V18.0723H100.284V23.3809C100.284 23.7441 100.354 24.0078 100.495 24.1719C100.642 24.3301 100.899 24.4092 101.269 24.4092C101.515 24.4092 101.764 24.3799 102.016 24.3213V25.9736C101.529 26.1084 101.061 26.1758 100.609 26.1758C98.9688 26.1758 98.1484 25.2705 98.1484 23.46V18.0723H96.584V16.4902H98.1484V14.1787H100.284Z"
            fill="white" />
    </svg>
</svg>