<svg width="113" height="40" viewBox="0 0 113 40" fill="none" xmlns="http://www.w3.org/2000/svg" id="header-logo">
<circle cx="20" cy="20" r="20" fill="currentColor"/>
<path d="M35.8772 23.804C36.6332 23.804 37.2332 23.906 37.6772 24.11C38.1332 24.302 38.5892 24.59 39.0452 24.974C39.1772 25.082 39.2912 25.136 39.3872 25.136C39.6272 25.136 39.7832 24.776 39.8552 24.056H40.2692C40.2212 24.776 40.1972 26.036 40.1972 27.836H39.7832C39.6512 27.164 39.5252 26.684 39.4052 26.396C39.2972 26.096 39.1232 25.808 38.8832 25.532C38.5472 25.16 38.1812 24.872 37.7852 24.668C37.3892 24.452 36.9812 24.344 36.5612 24.344C35.9252 24.344 35.3732 24.554 34.9052 24.974C34.4372 25.394 34.0712 26 33.8072 26.792C33.5552 27.572 33.4292 28.496 33.4292 29.564C33.4292 30.644 33.5732 31.574 33.8612 32.354C34.1492 33.122 34.5392 33.71 35.0312 34.118C35.5232 34.514 36.0752 34.712 36.6872 34.712C37.1312 34.712 37.5632 34.61 37.9832 34.406C38.4032 34.19 38.7692 33.896 39.0812 33.524C39.3212 33.236 39.4952 32.924 39.6032 32.588C39.7112 32.24 39.8132 31.724 39.9092 31.04H40.3232C40.3232 32.924 40.3472 34.244 40.3952 35H39.9812C39.9452 34.628 39.8912 34.358 39.8192 34.19C39.7472 34.01 39.6512 33.92 39.5312 33.92C39.4352 33.92 39.3152 33.974 39.1712 34.082C38.7392 34.442 38.2652 34.73 37.7492 34.946C37.2332 35.15 36.6272 35.252 35.9312 35.252C34.7432 35.252 33.6872 35.03 32.7632 34.586C31.8512 34.142 31.1312 33.5 30.6032 32.66C30.0872 31.808 29.8292 30.8 29.8292 29.636C29.8292 28.496 30.0932 27.488 30.6212 26.612C31.1612 25.724 31.8872 25.034 32.7992 24.542C33.7232 24.05 34.7492 23.804 35.8772 23.804ZM48.2791 23.804C49.5631 23.804 50.6851 24.026 51.6451 24.47C52.6171 24.902 53.3671 25.544 53.8951 26.396C54.4351 27.236 54.7051 28.244 54.7051 29.42C54.7051 30.572 54.4291 31.592 53.8771 32.48C53.3371 33.356 52.5751 34.04 51.5911 34.532C50.6191 35.012 49.5091 35.252 48.2611 35.252C46.9771 35.252 45.8491 35.036 44.8771 34.604C43.9171 34.16 43.1671 33.518 42.6271 32.678C42.0991 31.826 41.8351 30.812 41.8351 29.636C41.8351 28.484 42.1051 27.47 42.6451 26.594C43.1971 25.706 43.9591 25.022 44.9311 24.542C45.9151 24.05 47.0311 23.804 48.2791 23.804ZM48.2071 24.128C47.6551 24.128 47.1691 24.362 46.7491 24.83C46.3291 25.286 46.0051 25.928 45.7771 26.756C45.5491 27.572 45.4351 28.508 45.4351 29.564C45.4351 30.632 45.5611 31.574 45.8131 32.39C46.0771 33.206 46.4251 33.836 46.8571 34.28C47.3011 34.712 47.7931 34.928 48.3331 34.928C48.8851 34.928 49.3711 34.7 49.7911 34.244C50.2111 33.776 50.5351 33.134 50.7631 32.318C50.9911 31.49 51.1051 30.548 51.1051 29.492C51.1051 28.424 50.9731 27.482 50.7091 26.666C50.4571 25.85 50.1091 25.226 49.6651 24.794C49.2331 24.35 48.7471 24.128 48.2071 24.128ZM67.274 24.416C66.842 24.5 66.524 24.632 66.32 24.812C66.128 24.98 65.996 25.244 65.924 25.604C65.852 25.964 65.816 26.504 65.816 27.224V30.122C65.816 30.95 65.756 31.658 65.636 32.246C65.528 32.822 65.342 33.326 65.078 33.758C64.778 34.214 64.334 34.58 63.746 34.856C63.17 35.12 62.516 35.252 61.784 35.252C60.356 35.252 59.228 34.988 58.4 34.46C57.944 34.148 57.596 33.812 57.356 33.452C57.116 33.092 56.948 32.66 56.852 32.156C56.756 31.652 56.708 30.992 56.708 30.176V25.964C56.708 25.508 56.672 25.178 56.6 24.974C56.54 24.77 56.426 24.632 56.258 24.56C56.09 24.488 55.814 24.44 55.43 24.416V24.056C56.078 24.092 57.086 24.11 58.454 24.11C59.762 24.11 60.764 24.092 61.46 24.056V24.416C61.076 24.44 60.794 24.488 60.614 24.56C60.446 24.632 60.332 24.77 60.272 24.974C60.212 25.178 60.182 25.508 60.182 25.964V30.482C60.182 31.334 60.236 32.042 60.344 32.606C60.464 33.158 60.704 33.602 61.064 33.938C61.424 34.274 61.958 34.442 62.666 34.442C63.674 34.442 64.382 34.082 64.79 33.362C65.198 32.63 65.402 31.616 65.402 30.32V27.584C65.402 26.696 65.366 26.06 65.294 25.676C65.222 25.28 65.06 24.992 64.808 24.812C64.568 24.632 64.16 24.5 63.584 24.416V24.056C64.076 24.092 64.748 24.11 65.6 24.11C66.32 24.11 66.878 24.092 67.274 24.056V24.416ZM80.1782 34.244C79.8422 34.58 79.4702 34.832 79.0622 35C78.6662 35.168 78.1562 35.252 77.5322 35.252C76.7522 35.252 76.1522 35.12 75.7322 34.856C75.3122 34.58 75.0422 34.202 74.9222 33.722L74.4182 31.688C74.3102 31.028 74.1422 30.59 73.9142 30.374C73.6862 30.146 73.3502 30.032 72.9062 30.032H72.6002V33.092C72.6002 33.548 72.6302 33.878 72.6902 34.082C72.7622 34.286 72.8822 34.424 73.0502 34.496C73.2182 34.568 73.4942 34.616 73.8782 34.64V35C73.1102 34.964 71.9882 34.946 70.5122 34.946C69.3122 34.946 68.4242 34.964 67.8482 35V34.64C68.2322 34.616 68.5082 34.568 68.6762 34.496C68.8562 34.424 68.9762 34.286 69.0362 34.082C69.0962 33.878 69.1262 33.548 69.1262 33.092V25.964C69.1262 25.508 69.0902 25.178 69.0182 24.974C68.9582 24.77 68.8442 24.632 68.6762 24.56C68.5082 24.488 68.2322 24.44 67.8482 24.416V24.056C68.4242 24.092 69.2762 24.11 70.4042 24.11L72.6002 24.092C72.8522 24.08 73.1462 24.074 73.4822 24.074C76.9742 24.074 78.7202 24.998 78.7202 26.846C78.7202 27.614 78.3722 28.28 77.6762 28.844C76.9922 29.408 75.8342 29.762 74.2022 29.906C74.2502 29.906 74.3102 29.912 74.3822 29.924C74.4662 29.924 74.5622 29.936 74.6702 29.96C75.6782 30.056 76.4702 30.248 77.0462 30.536C77.6342 30.812 78.0062 31.262 78.1622 31.886L78.5402 33.47C78.6122 33.77 78.7082 33.98 78.8282 34.1C78.9482 34.208 79.1042 34.262 79.2962 34.262C79.5122 34.262 79.7222 34.178 79.9262 34.01L80.1782 34.244ZM73.3922 24.416C73.1642 24.416 72.9962 24.458 72.8882 24.542C72.7802 24.626 72.7022 24.776 72.6542 24.992C72.6182 25.208 72.6002 25.532 72.6002 25.964V29.672H73.0862C73.8662 29.672 74.4002 29.444 74.6882 28.988C74.9762 28.52 75.1202 27.872 75.1202 27.044C75.1202 26.168 74.9882 25.514 74.7242 25.082C74.4602 24.638 74.0162 24.416 73.3922 24.416ZM85.4222 23.804C86.4302 23.804 87.3422 24.026 88.1582 24.47C88.2902 24.542 88.4042 24.602 88.5002 24.65C88.6082 24.698 88.6982 24.722 88.7702 24.722C88.8782 24.722 88.9622 24.662 89.0222 24.542C89.0822 24.41 89.1302 24.206 89.1662 23.93H89.5802C89.5202 24.71 89.4902 26.054 89.4902 27.962H89.0762C88.9082 26.738 88.5122 25.814 87.8882 25.19C87.2762 24.554 86.5202 24.236 85.6202 24.236C85.0442 24.236 84.5882 24.344 84.2522 24.56C83.9162 24.776 83.7482 25.058 83.7482 25.406C83.7482 25.718 83.8622 26.018 84.0902 26.306C84.3182 26.582 84.6122 26.846 84.9722 27.098C85.3322 27.35 85.9022 27.722 86.6822 28.214C87.4022 28.634 87.9902 29.018 88.4462 29.366C88.9022 29.702 89.2862 30.11 89.5982 30.59C89.9102 31.058 90.0662 31.592 90.0662 32.192C90.0662 33.176 89.6162 33.932 88.7162 34.46C87.8162 34.988 86.6162 35.252 85.1162 35.252C84.5402 35.252 84.0422 35.186 83.6222 35.054C83.2022 34.934 82.7042 34.76 82.1282 34.532C81.8042 34.4 81.5942 34.334 81.4982 34.334C81.3902 34.334 81.3062 34.4 81.2462 34.532C81.1862 34.652 81.1382 34.85 81.1022 35.126H80.6882C80.7362 34.406 80.7602 32.846 80.7602 30.446H81.1742C81.2702 31.838 81.6482 32.912 82.3082 33.668C82.9682 34.424 83.8622 34.802 84.9902 34.802C85.4942 34.802 85.9262 34.688 86.2862 34.46C86.6582 34.232 86.8442 33.884 86.8442 33.416C86.8442 32.984 86.6822 32.606 86.3582 32.282C86.0342 31.958 85.4582 31.538 84.6302 31.022C83.3822 30.278 82.4282 29.588 81.7682 28.952C81.1082 28.304 80.7782 27.584 80.7782 26.792C80.7782 25.82 81.2042 25.082 82.0562 24.578C82.9082 24.062 84.0302 23.804 85.4222 23.804ZM101.018 32.516C101.018 33.248 101.06 34.076 101.144 35C100.364 34.964 99.0502 34.946 97.2022 34.946C94.5622 34.946 92.5822 34.964 91.2622 35V34.64C91.6462 34.616 91.9222 34.568 92.0902 34.496C92.2702 34.424 92.3902 34.286 92.4502 34.082C92.5102 33.878 92.5402 33.548 92.5402 33.092V25.964C92.5402 25.508 92.5042 25.178 92.4322 24.974C92.3722 24.77 92.2582 24.632 92.0902 24.56C91.9222 24.488 91.6462 24.44 91.2622 24.416V24.056C92.5822 24.092 94.5622 24.11 97.2022 24.11C98.8822 24.11 100.076 24.092 100.784 24.056C100.7 24.908 100.658 25.676 100.658 26.36C100.658 26.828 100.676 27.2 100.712 27.476H100.298C100.058 26.408 99.6742 25.64 99.1462 25.172C98.6302 24.704 97.9702 24.47 97.1662 24.47H96.9322C96.5962 24.47 96.3562 24.53 96.2122 24.65C96.0802 24.77 96.0142 25.028 96.0142 25.424V29.312H96.4282C97.0042 29.312 97.4602 29.108 97.7962 28.7C98.1442 28.28 98.3662 27.812 98.4622 27.296H98.8762C98.8402 27.704 98.8222 28.184 98.8222 28.736V29.492C98.8222 30.08 98.8582 30.812 98.9302 31.688H98.5162C98.4322 31.112 98.2102 30.632 97.8502 30.248C97.4902 29.864 97.0162 29.672 96.4282 29.672H96.0142V33.632C96.0142 34.028 96.0802 34.286 96.2122 34.406C96.3562 34.526 96.5962 34.586 96.9322 34.586H97.3462C98.1862 34.586 98.8822 34.328 99.4342 33.812C99.9982 33.284 100.406 32.42 100.658 31.22H101.072C101.036 31.556 101.018 31.988 101.018 32.516ZM107.483 23.804C108.491 23.804 109.403 24.026 110.219 24.47C110.351 24.542 110.465 24.602 110.561 24.65C110.669 24.698 110.759 24.722 110.831 24.722C110.939 24.722 111.023 24.662 111.083 24.542C111.143 24.41 111.191 24.206 111.227 23.93H111.641C111.581 24.71 111.551 26.054 111.551 27.962H111.137C110.969 26.738 110.573 25.814 109.949 25.19C109.337 24.554 108.581 24.236 107.681 24.236C107.105 24.236 106.649 24.344 106.313 24.56C105.977 24.776 105.809 25.058 105.809 25.406C105.809 25.718 105.923 26.018 106.151 26.306C106.379 26.582 106.673 26.846 107.033 27.098C107.393 27.35 107.963 27.722 108.743 28.214C109.463 28.634 110.051 29.018 110.507 29.366C110.963 29.702 111.347 30.11 111.659 30.59C111.971 31.058 112.127 31.592 112.127 32.192C112.127 33.176 111.677 33.932 110.777 34.46C109.877 34.988 108.677 35.252 107.177 35.252C106.601 35.252 106.103 35.186 105.683 35.054C105.263 34.934 104.765 34.76 104.189 34.532C103.865 34.4 103.655 34.334 103.559 34.334C103.451 34.334 103.367 34.4 103.307 34.532C103.247 34.652 103.199 34.85 103.163 35.126H102.749C102.797 34.406 102.821 32.846 102.821 30.446H103.235C103.331 31.838 103.709 32.912 104.369 33.668C105.029 34.424 105.923 34.802 107.051 34.802C107.555 34.802 107.987 34.688 108.347 34.46C108.719 34.232 108.905 33.884 108.905 33.416C108.905 32.984 108.743 32.606 108.419 32.282C108.095 31.958 107.519 31.538 106.691 31.022C105.443 30.278 104.489 29.588 103.829 28.952C103.169 28.304 102.839 27.584 102.839 26.792C102.839 25.82 103.265 25.082 104.117 24.578C104.969 24.062 106.091 23.804 107.483 23.804Z" fill="#000000"/>
<path d="M16.9541 14.24C16.5275 14.2667 16.2141 14.32 16.0141 14.4C15.8275 14.48 15.7008 14.6333 15.6341 14.86C15.5675 15.0867 15.5341 15.4533 15.5341 15.96V25.88C15.5341 26.3867 15.5675 26.7533 15.6341 26.98C15.7141 27.2067 15.8475 27.36 16.0341 27.44C16.2208 27.52 16.5275 27.5733 16.9541 27.6V28C16.1808 27.96 15.0675 27.94 13.6141 27.94C12.0008 27.94 10.8141 27.96 10.0541 28V27.6C10.4808 27.5733 10.7875 27.52 10.9741 27.44C11.1741 27.36 11.3075 27.2067 11.3741 26.98C11.4408 26.7533 11.4741 26.3867 11.4741 25.88V15.96C11.4741 15.4533 11.4341 15.0867 11.3541 14.86C11.2875 14.6333 11.1608 14.48 10.9741 14.4C10.7875 14.32 10.4808 14.2667 10.0541 14.24V13.84C10.8141 13.88 12.0008 13.9 13.6141 13.9C15.0541 13.9 16.1675 13.88 16.9541 13.84V14.24ZM31.0415 13.84C30.9482 15.32 30.9015 16.64 30.9015 17.8C30.9015 18.4133 30.9215 18.8933 30.9615 19.24H30.5015C30.0615 17.4933 29.4948 16.2333 28.8015 15.46C28.1082 14.6867 27.3615 14.3 26.5615 14.3H26.5415V25.74C26.5415 26.3 26.5948 26.7067 26.7015 26.96C26.8215 27.2133 27.0282 27.3867 27.3215 27.48C27.6282 27.56 28.1082 27.6 28.7615 27.6V28C26.8815 27.96 25.4215 27.94 24.3815 27.94C23.4348 27.94 22.0615 27.96 20.2615 28V27.6C20.9148 27.6 21.3882 27.56 21.6815 27.48C21.9882 27.3867 22.1948 27.2133 22.3015 26.96C22.4215 26.7067 22.4815 26.3 22.4815 25.74V14.3H22.4615C21.6482 14.3 20.8948 14.6867 20.2015 15.46C19.5215 16.22 18.9615 17.48 18.5215 19.24H18.0615C18.1015 18.8933 18.1215 18.4133 18.1215 17.8C18.1215 16.64 18.0748 15.32 17.9815 13.84C19.2482 13.88 21.4282 13.9 24.5215 13.9C27.6015 13.9 29.7748 13.88 31.0415 13.84Z" fill="#ffffff"/>
</svg>
